<?xml version="1.0" encoding="UTF-8" standalone="no"?>
<svg
   xmlns:dc="http://purl.org/dc/elements/1.1/"
   xmlns:cc="http://creativecommons.org/ns#"
   xmlns:rdf="http://www.w3.org/1999/02/22-rdf-syntax-ns#"
   xmlns:svg="http://www.w3.org/2000/svg"
   xmlns="http://www.w3.org/2000/svg"
   viewBox="0 0 4000 4000"
   height="4000"
   width="4000"
   xml:space="preserve"
   id="svg2"
   version="1.1"><metadata
     id="metadata8"><rdf:RDF><cc:Work
         rdf:about=""><dc:format>image/svg+xml</dc:format><dc:type
           rdf:resource="http://purl.org/dc/dcmitype/StillImage" /></cc:Work></rdf:RDF></metadata><defs
     id="defs6" /><g
     transform="matrix(1.3333333,0,0,-1.3333333,0,4000)"
     id="g10"><g
       transform="scale(0.1)"
       id="g12"><g
         transform="scale(1.84049)"
         id="g14"><path
           id="path16"
           style="fill:#ffffff;fill-opacity:1;fill-rule:nonzero;stroke:none"
           d="M 0,16300 H 16300 V 0 H 0 v 16300" /></g><g
         transform="scale(1.78298)"
         id="g18"><path
           id="path20"
           style="fill:#e3f8fb;fill-opacity:1;fill-rule:nonzero;stroke:none"
           d="m 525.806,13145.2 c 0,1742.3 1412.474,3154.8 3154.844,3154.8 h 9464.55 c 1742.3,0 3154.8,-1412.5 3154.8,-3154.8 V 3680.65 C 16300,1938.28 14887.5,525.806 13145.2,525.806 H 3680.65 C 1938.28,525.806 525.806,1938.28 525.806,3680.65 v 9464.55" /></g><g
         transform="scale(1.38037)"
         id="g22"><path
           id="path24"
           style="fill:#8de2ec;fill-opacity:1;fill-rule:evenodd;stroke:none"
           d="m 11907.7,9013.97 c 0,191.55 155.2,346.79 346.8,346.79 h 3698.7 c 191.6,0 346.8,-155.24 346.8,-346.79 V 7164.61 c 0,-957.5 -776.2,-1733.74 -1733.8,-1733.74 h -924.7 c -957.6,0 -1733.8,776.24 -1733.8,1733.74 z m 693.5,-346.72 V 7164.61 c 0,-574.48 465.7,-1040.23 1040.3,-1040.23 h 924.7 c 574.5,0 1040.3,465.75 1040.3,1040.23 v 1502.64 h -3005.3" /></g><g
         transform="scale(1.28248)"
         id="g26"><path
           id="path28"
           style="fill:#8de2ec;fill-opacity:1;fill-rule:evenodd;stroke:none"
           d="m 14060.7,10448.4 c 0,618.4 501.3,1119.7 1119.6,1119.7 618.4,0 1119.7,-501.3 1119.7,-1119.7 V 9204.32 c 0,-206.08 -167.1,-373.18 -373.3,-373.18 -206,0 -373.1,167.1 -373.1,373.18 v 1244.08 c 0,206.2 -167.1,373.3 -373.3,373.3 -206.1,0 -373.2,-167.1 -373.2,-373.3 V 9204.32 c 0,-206.08 -167.1,-373.18 -373.2,-373.18 -206.1,0 -373.2,167.1 -373.2,373.18 v 1244.08" /></g><g
         transform="scale(1.38037)"
         id="g30"><path
           id="path32"
           style="fill:#25c6da;fill-opacity:1;fill-rule:nonzero;stroke:none"
           d="m 9729.87,15271.7 c 264.64,608.8 887.23,1028.3 1598.33,1028.3 945.1,0 1733.8,-741 1733.8,-1682.4 0,-941.4 -788.7,-1682.4 -1733.8,-1682.4 -217,0 -425.7,39 -618.4,110.6 26.5,133.7 40.5,272.4 40.5,415 0,775.4 -413.5,1435.3 -1020.43,1810.9" /></g><g
         transform="scale(1.22362)"
         id="g34"><path
           id="path36"
           style="fill:#25c6da;fill-opacity:1;fill-rule:nonzero;stroke:none"
           d="m 16300,12601.2 c -125,29.4 -255.4,45 -389.4,45 -892.3,0 -1623.6,-689.5 -1690.2,-1564.7 h -396.1 c -44.9,0 -89,-3.2 -132.1,-9.5 v 645.8 c 0,436.9 -238.6,824.1 -599.2,1031.6 -544.2,313.4 -1122.9,546.3 -1718.1,698.9 276.8,261 492.5,585.5 620.7,952.8 1354.6,166.1 2753.2,-100.2 3966.6,-798.7 205,-118 337.8,-336.2 337.8,-579.6 v -421.6" /></g><g
         transform="scale(1.00788)"
         id="g38"><path
           id="path40"
           style="fill:#25c6da;fill-opacity:1;fill-rule:nonzero;stroke:none"
           d="m 15989.7,13118.7 c -194.5,-199.7 -314.5,-472.5 -314.5,-773.3 v -548 c -170.7,-150.1 -395.8,-239.4 -635.3,-239.4 H 8391.16 c -507.52,0 -949.82,400.6 -949.82,932.2 v 1735.7 c 0,295.5 161.26,560.4 410.05,703.7 2380.41,1370.4 5347.81,1370.4 7728.31,0 248.7,-143.3 410,-408.2 410,-703.7 v -1107.2" /></g><g
         transform="scale(1.2824)"
         id="g42"><path
           id="path44"
           style="fill:#25c6da;fill-opacity:1;fill-rule:nonzero;stroke:none"
           d="m 9207.67,16300 c -1017.31,0 -1866.25,-797.6 -1866.25,-1811 0,-1013.2 848.94,-1810.9 1866.25,-1810.9 1017.33,0 1866.23,797.7 1866.23,1810.9 0,1013.4 -848.9,1811 -1866.23,1811" /></g></g></g></svg>